#N canvas -9 -9 1920 976 16;
#X obj 4 6 cnv 15 600 800 empty empty empty 20 12 0 14 -128992 -66577
0;
#X obj 9 6 cnv 15 590 40 empty empty PLACE_NOTHING_HERE 20 12 0 14
-261682 -66577 0;
#X obj 53 187 bng 170 250 50 0 empty empty nourrir 50 -20 1 20 -262144
-1 -1;
#X obj 213 618 bng 170 250 50 0 empty empty baguette 45 -20 1 20 -262144
-1 -1;
#X obj 349 403 bng 170 250 50 0 empty empty selfie 50 -20 0 20 -262144
-1 -1;
#X obj 351 184 bng 170 250 50 0 caresse empty caresse 50 -20 1 20 -262144
-1 -1;
#X obj 53 403 bng 170 250 50 0 empty empty chien 55 -20 1 20 -262144
-1 -1;
#X text 155 61 Appuie sur les touches;
#X text 164 86 ou bouge le téléphone;
#X text 201 39 Joue avec moi !;
